<?xml version="1.0" standalone="no"?>
<!DOCTYPE svg PUBLIC "-//W3C//DTD SVG 20010904//EN"
 "http://www.w3.org/TR/2001/REC-SVG-20010904/DTD/svg10.dtd">
<svg version="1.0" xmlns="http://www.w3.org/2000/svg"
 width="180.000000pt" height="180.000000pt" viewBox="0 0 180.000000 180.000000"
 preserveAspectRatio="xMidYMid meet">
<metadata>
Created by potrace 1.14, written by Peter Selinger 2001-2017
</metadata>
<g transform="translate(0.000000,180.000000) scale(0.100000,-0.100000)"
fill="#000000" stroke="none">
<path d="M0 900 l0 -900 900 0 900 0 0 900 0 900 -900 0 -900 0 0 -900z m1457
658 c9 -15 12 -65 6 -90 -3 -13 -15 -18 -44 -18 l-39 0 0 60 0 60 34 0 c19 0
38 -6 43 -12z m113 -3 c0 -8 -7 -15 -15 -15 -10 0 -15 -10 -15 -30 0 -20 5
-30 15 -30 8 0 15 -7 15 -15 0 -11 -12 -15 -45 -15 -33 0 -45 4 -45 15 0 8 7
15 15 15 10 0 15 10 15 30 0 20 -5 30 -15 30 -8 0 -15 7 -15 15 0 11 12 15 45
15 33 0 45 -4 45 -15z m61 -2 c1 -17 2 -17 6 0 2 9 11 17 19 17 11 0 14 -15
14 -60 0 -57 -1 -60 -25 -60 -20 0 -25 5 -26 28 l-2 27 -4 -27 c-2 -16 -11
-28 -19 -28 -11 0 -14 15 -14 60 0 57 1 60 25 60 17 0 25 -6 26 -17z m-557
-160 c7 -23 226 -1000 226 -1008 0 -3 -51 -4 -112 -3 l-113 3 -26 120 c-14 66
-29 132 -32 148 l-7 27 -129 0 -129 0 -20 -87 c-11 -49 -26 -116 -33 -150
l-13 -63 -107 0 -106 0 78 348 c43 191 95 422 116 515 l37 167 182 0 c165 0
183 -2 188 -17z m-809 -1160 c3 -21 9 -48 12 -60 6 -28 -14 -31 -33 -5 -13 16
-15 16 -25 0 -13 -24 -42 -24 -35 0 2 9 8 33 11 52 10 47 12 50 39 50 20 0 25
-7 31 -37z m103 25 c5 -7 9 -33 9 -58 l-2 -45 -42 -3 -43 -3 0 60 0 61 34 0
c18 0 38 -6 44 -12z m109 -18 l13 -25 0 28 c0 20 5 27 20 27 17 0 20 -7 20
-44 0 -25 5 -48 10 -51 6 -4 10 13 10 44 0 44 3 51 20 51 16 0 20 -7 20 -34 0
-70 -30 -107 -70 -86 -10 5 -22 19 -25 31 -7 21 -7 21 -19 -2 -8 -18 -21 -25
-49 -27 l-37 -3 0 61 0 61 37 -3 c28 -2 41 -9 50 -28z m163 -15 c0 -41 2 -45
25 -45 16 0 25 -6 25 -15 0 -11 -11 -15 -40 -15 l-40 0 0 60 c0 47 3 60 15 60
11 0 15 -12 15 -45z m601 33 c0 -10 2 -10 6 0 2 6 13 12 24 12 17 0 19 -8 19
-60 0 -47 -3 -60 -15 -60 -8 0 -15 8 -15 18 0 11 -7 18 -20 18 -13 0 -20 -7
-20 -18 0 -10 -7 -18 -15 -18 -12 0 -15 13 -15 60 0 57 1 60 25 60 14 0 25 -6
26 -12z m91 -35 c2 -27 8 -48 13 -48 6 0 11 21 13 48 2 33 7 47 18 47 20 0 19
-93 -2 -114 -18 -19 -28 -20 -55 -6 -15 9 -19 22 -19 65 0 41 4 55 14 55 11 0
16 -14 18 -47z m119 30 c1 -17 2 -17 6 0 2 9 11 17 19 17 11 0 14 -15 14 -60
0 -57 -1 -60 -25 -60 -20 0 -25 5 -26 28 l-2 27 -4 -27 c-2 -16 -11 -28 -19
-28 -11 0 -14 15 -14 60 0 57 1 60 25 60 17 0 25 -6 26 -17z m139 2 c0 -8 -4
-15 -10 -15 -5 0 -10 -13 -10 -30 0 -16 5 -30 10 -30 6 0 10 -7 10 -15 0 -11
-12 -15 -45 -15 -44 0 -60 15 -30 26 9 4 15 19 15 35 0 19 -5 29 -15 29 -8 0
-15 7 -15 15 0 11 12 15 45 15 33 0 45 -4 45 -15z m61 -2 c1 -17 2 -17 6 0 2
9 13 17 24 17 17 0 19 -7 19 -60 0 -47 -3 -60 -15 -60 -8 0 -15 6 -15 14 0 7
-9 16 -20 19 -15 4 -20 0 -20 -14 0 -10 -7 -19 -15 -19 -12 0 -15 13 -15 60 0
57 1 60 25 60 17 0 25 -6 26 -17z"/>
<path d="M1410 1530 c0 -5 5 -10 10 -10 6 0 10 5 10 10 0 6 -4 10 -10 10 -5 0
-10 -4 -10 -10z"/>
<path d="M1418 1483 c7 -3 16 -2 19 1 4 3 -2 6 -13 5 -11 0 -14 -3 -6 -6z"/>
<path d="M837 1072 c-20 -92 -37 -171 -37 -175 0 -4 38 -7 84 -7 l83 0 -33
153 c-44 202 -43 197 -52 197 -5 0 -25 -75 -45 -168z"/>
<path d="M320 230 c0 -5 4 -10 9 -10 6 0 13 5 16 10 3 6 -1 10 -9 10 -9 0 -16
-4 -16 -10z"/>
<path d="M328 183 c7 -3 16 -2 19 1 4 3 -2 6 -13 5 -11 0 -14 -3 -6 -6z"/>
<path d="M420 210 c0 -20 5 -30 15 -30 10 0 15 10 15 30 0 20 -5 30 -15 30
-10 0 -15 -10 -15 -30z"/>
</g>
</svg>
