<?xml version="1.0" standalone="no"?>
<!DOCTYPE svg PUBLIC "-//W3C//DTD SVG 20010904//EN"
 "http://www.w3.org/TR/2001/REC-SVG-20010904/DTD/svg10.dtd">
<svg version="1.0" xmlns="http://www.w3.org/2000/svg"
 width="260.000000pt" height="260.000000pt" viewBox="0 0 260.000000 260.000000"
 preserveAspectRatio="xMidYMid meet">
<metadata>
Created by potrace 1.14, written by Peter Selinger 2001-2017
</metadata>
<g transform="translate(0.000000,260.000000) scale(0.100000,-0.100000)"
fill="#000000" stroke="none">
<path d="M1990 2102 c-11 -13 -20 -31 -20 -38 0 -8 -15 -37 -33 -66 -19 -29
-51 -84 -72 -123 -21 -38 -77 -126 -124 -195 -48 -69 -121 -174 -162 -234 -81
-118 -152 -211 -183 -238 -10 -10 -33 -19 -50 -19 -17 -1 -47 -3 -66 -5 -86
-9 -373 -5 -447 5 -191 27 -300 87 -304 168 -3 58 2 72 48 123 56 63 61 82 27
109 -34 27 -74 12 -117 -43 -50 -61 -70 -113 -70 -176 1 -92 54 -170 152 -220
53 -26 172 -59 246 -66 33 -3 71 -8 85 -10 33 -6 316 -5 359 1 18 2 32 3 30 1
-2 -3 -53 -40 -114 -85 -127 -93 -248 -159 -356 -195 -201 -67 -436 -51 -553
39 -60 46 -89 46 -113 1 -16 -30 2 -58 63 -99 237 -156 620 -113 942 106 97
67 121 86 242 203 35 33 55 44 90 49 25 3 61 7 80 10 19 3 55 7 80 10 25 3 61
8 80 11 36 5 72 10 153 20 46 6 47 6 48 -22 0 -16 2 -36 3 -44 2 -8 6 -49 10
-90 10 -118 21 -174 48 -258 23 -72 53 -101 87 -82 37 19 42 43 21 98 -11 28
-22 66 -26 84 -12 65 -31 253 -30 292 1 45 -6 43 151 60 124 14 138 20 148 56
6 25 -21 61 -48 62 -24 1 -136 -10 -205 -21 -33 -5 -50 -4 -53 3 -6 14 0 328
7 436 3 47 9 123 12 170 3 49 14 103 25 128 27 62 10 100 -47 107 -17 1 -31
-6 -44 -23z m-55 -349 c-4 -32 -7 -156 -8 -275 l-2 -217 -50 -6 c-27 -4 -61
-8 -75 -10 -14 -2 -52 -7 -85 -10 -33 -4 -82 -11 -109 -16 -67 -12 -69 -12
-47 12 31 33 353 520 365 551 6 16 12 28 13 28 2 0 1 -26 -2 -57z"/>
</g>
</svg>
